<?xml version="1.0" encoding="UTF-8"?><svg id="Layer_1" xmlns="http://www.w3.org/2000/svg" xmlns:xlink="http://www.w3.org/1999/xlink" viewBox="0 0 521.93 104.92"><defs><style>.cls-1{fill:url(#radial-gradient-7);}.cls-2{fill:url(#radial-gradient-10);}.cls-3{fill:url(#radial-gradient-8);}.cls-4{fill:url(#radial-gradient-5);}.cls-5{fill:url(#radial-gradient-4);}.cls-6{fill:url(#radial-gradient-6);}.cls-7{fill:url(#radial-gradient);}.cls-8{font-family:Olga-Regular, Olga;font-size:24px;letter-spacing:.06em;}.cls-8,.cls-9{fill:#3158a8;}.cls-10{fill:url(#radial-gradient-2);}.cls-11{fill:url(#radial-gradient-3);}.cls-9{stroke:#3259a8;stroke-miterlimit:10;}.cls-12{fill:url(#radial-gradient-9);}</style><radialGradient id="radial-gradient" cx="18.11" cy="52.02" fx="18.11" fy="52.02" r="25.32" gradientTransform="matrix(1, 0, 0, 1, 0, 0)" gradientUnits="userSpaceOnUse"><stop offset="0" stop-color="#76d1f5"/><stop offset="1" stop-color="#214197"/></radialGradient><radialGradient id="radial-gradient-2" cx="44.34" cy="51.35" fx="44.34" fy="51.35" r="21.62" xlink:href="#radial-gradient"/><radialGradient id="radial-gradient-3" cx="86.97" cy="50.66" fx="86.97" fy="50.66" r="32.81" xlink:href="#radial-gradient"/><radialGradient id="radial-gradient-4" cx="142.05" cy="41.18" fx="142.05" fy="41.18" r="30.93" xlink:href="#radial-gradient"/><radialGradient id="radial-gradient-5" cx="195.23" cy="51.34" fx="195.23" fy="51.34" r="29.78" xlink:href="#radial-gradient"/><radialGradient id="radial-gradient-6" cx="238.8" cy="43.6" fx="238.8" fy="43.6" r="27.09" xlink:href="#radial-gradient"/><radialGradient id="radial-gradient-7" cx="279.54" cy="43.6" fx="279.54" fy="43.6" r="32.16" xlink:href="#radial-gradient"/><radialGradient id="radial-gradient-8" cx="337.84" cy="51.37" fx="337.84" fy="51.37" r="30" xlink:href="#radial-gradient"/><radialGradient id="radial-gradient-9" cx="484.68" cy="50.66" fx="484.68" fy="50.66" r="34.23" xlink:href="#radial-gradient"/><radialGradient id="radial-gradient-10" cx="416.67" cy="50.66" fx="416.67" fy="50.66" r="36.28" xlink:href="#radial-gradient"/></defs><g><path class="cls-7" d="M36.21,67.04h0c0,8.58-6.79,15.83-15.36,15.89-.06,0-.12,0-.18,0-3.57,0-6.9-.68-9.98-2.05-3.1-1.35-5.4-3.08-6.9-5.15-1.5-2.07-2.56-4.59-3.16-7.6-.41-2.01-.62-5.19-.62-9.55V21.13H6.44c2.1,0,3.81,1.7,3.81,3.81v29.71c0,5.34,.21,8.95,.62,10.81,.64,2.69,2.01,4.81,4.1,6.34,2.09,1.54,4.66,2.31,7.75,2.31s5.96-.79,8.65-2.37c2.09-1.22,3.72-2.78,4.85-4.7Z"/><path class="cls-10" d="M49,21.13v52.08c0,4.62-3.75,8.37-8.37,8.37h-.94V29.49c0-4.62,3.75-8.37,8.37-8.37h.94Z"/><path class="cls-11" d="M121.59,40.08v32.88c0,4.76-3.86,8.61-8.61,8.61h-1.58V43.48c0-4.1-.32-7.05-1-8.84-.66-1.8-1.86-3.25-3.61-4.36-1.75-1.11-3.8-1.65-6.15-1.65-4.25,0-7.78,1.41-10.58,4.25-2.8,2.82-4.21,7.35-4.21,13.57v26.51c0,4.76-3.86,8.61-8.61,8.61h-1.64V42.3c0-4.55-.83-7.97-2.5-10.25-1.67-2.27-4.4-3.42-8.2-3.42-2.9,0-5.55,.77-7.99,2.27-1.96,1.2-3.48,2.86-4.55,4.94v-9.41c0-1.04,.56-2,1.47-2.52l2.59-1.46c3.14-1.8,6.73-2.71,10.75-2.71,4.47,0,8.14,.92,11.02,2.78,2.86,1.86,4.89,4.46,6.05,7.8,4.78-7.05,11-10.58,18.67-10.58,6,0,10.6,1.65,13.84,4.98,3.22,3.31,4.83,8.42,4.83,15.34Z"/><path class="cls-5" d="M155.31,72.4l1.48,9.05c-2.88,.61-5.46,.91-7.74,.91-3.72,0-6.6-.59-8.65-1.76-2.05-1.18-3.49-2.72-4.33-4.64-.84-1.92-1.25-5.95-1.25-12.1V29.08h-7.51v-7.97h7.51V6.15l10.19-6.15V21.12h10.3v7.97h-10.3v35.35c0,2.92,.18,4.8,.54,5.63,.36,.84,.95,1.5,1.76,1.99,.82,.49,1.98,.74,3.5,.74,1.14,0,2.64-.13,4.5-.4Z"/><path class="cls-4" d="M212.28,63.44l10.47-.03c-1.67,6.19-4.76,10.98-9.28,14.4-4.52,3.42-10.29,5.12-17.3,5.12-8.84,0-15.85-2.72-21.03-8.17-5.18-5.45-7.77-13.08-7.77-22.91s2.62-18.06,7.86-23.68c5.24-5.61,12.03-8.42,20.38-8.42s14.68,2.75,19.81,8.25c5.12,5.5,7.68,13.24,7.68,23.22,0,.61-.02,1.52-.06,2.73h-45.08c.38,6.64,2.25,11.72,5.63,15.25s7.59,5.29,12.64,5.29c3.76,0,6.96-.99,9.62-2.96,2.65-1.97,4.87-3.78,6.43-8.1Zm-33.75-17.91h33.75c-.46-5.08-1.74-8.9-3.87-11.44-3.26-3.95-7.49-5.92-12.69-5.92-4.71,0-8.66,1.58-11.87,4.72-3.21,3.15-4.98,7.36-5.32,12.64Z"/><path class="cls-6" d="M233.67,81.56V5.64h10.25V81.56h-10.25Z"/><path class="cls-1" d="M254.5,81.56V5.64h10.25V45.7l24.25-24.59h13.26l-23.11,22.43,25.44,38.02h-12.64l-19.98-30.91-7.23,6.94v23.96h-10.25Z"/><path class="cls-3" d="M309.53,51.37c0-11.19,3.11-19.48,9.33-24.87,5.2-4.48,11.53-6.72,19.01-6.72,8.31,0,15.1,2.72,20.38,8.17,5.27,5.45,7.91,12.97,7.91,22.57,0,7.78-1.17,13.9-3.5,18.36-2.33,4.46-5.73,7.92-10.19,10.39-4.46,2.47-9.33,3.7-14.6,3.7-8.46,0-15.3-2.71-20.52-8.14-5.22-5.43-7.83-13.24-7.83-23.45Zm10.53,0c0,7.74,1.69,13.54,5.07,17.39,3.38,3.85,7.63,5.78,12.75,5.78s9.31-1.94,12.69-5.81c3.38-3.87,5.07-9.77,5.07-17.7,0-7.47-1.7-13.14-5.09-16.99-3.4-3.85-7.62-5.78-12.66-5.78s-9.37,1.92-12.75,5.75c-3.38,3.83-5.07,9.62-5.07,17.36Z"/><path class="cls-12" d="M521.93,50.32c0,4.7-.58,8.86-1.73,12.48-1.15,3.61-2.61,6.62-4.4,8.99-1.8,2.39-3.76,4.25-5.9,5.62-2.12,1.35-4.7,2.39-7.71,3.08-3.01,.71-6.47,1.07-10.38,1.07h-44.39v-7.29h43.41c4.27,0,7.61-.39,10.04-1.15,2.43-.75,4.34-1.82,5.79-3.2,2.03-1.96,3.61-4.55,4.74-7.82,1.13-3.29,1.71-7.26,1.71-11.92,0-6.47-1.11-11.43-3.35-14.91-2.22-3.46-4.91-5.79-8.08-6.98-2.29-.85-5.98-1.26-11.07-1.26h-8.59c-2.76,0-4.98,2.22-4.98,4.98v37.4h-8.55V30.58c0-5.98,4.85-10.83,10.83-10.83h11.43c5.04,0,8.87,.3,11.53,.88,3.7,.81,6.86,2.29,9.48,4.42,3.4,2.76,5.96,6.28,7.65,10.57,1.69,4.29,2.54,9.19,2.54,14.7Z"/><path class="cls-2" d="M457.62,40.08v34.2h-10.19v-30.8c0-4.1-.34-7.05-1-8.84-.66-1.8-1.86-3.25-3.61-4.36-1.75-1.11-3.8-1.65-6.15-1.65-4.25,0-7.78,1.41-10.58,4.25-2.82,2.82-4.21,7.35-4.21,13.57v35.12h-10.25V42.3c0-4.55-.85-7.97-2.5-10.25-1.67-2.27-4.42-3.42-8.2-3.42-2.9,0-5.55,.77-8.01,2.27-2.44,1.52-4.21,3.74-5.32,6.66-1.09,2.93-1.65,7.14-1.65,12.63v31.38h-10.23V21.13h9.16v8.48c1.9-2.97,4.42-5.34,7.58-7.14,3.14-1.8,6.73-2.71,10.75-2.71,4.47,0,8.14,.92,11,2.78,2.88,1.86,4.89,4.46,6.07,7.8,4.78-7.05,11-10.58,18.67-10.58,6,0,10.6,1.65,13.84,4.98,3.22,3.31,4.83,8.42,4.83,15.34Z"/></g><text class="cls-8" transform="translate(236.92 103.32) scale(1.01 1)"><tspan x="0" y="0">Wir verbinden dich!</tspan></text><path class="cls-9" d="M236.63,95.23L3.48,93.6"/></svg>